<mxfile host="app.diagrams.net" modified="2024-01-02T17:46:56.697Z" agent="Mozilla/5.0 (Windows NT 10.0; Win64; x64) AppleWebKit/537.36 (KHTML, like Gecko) Chrome/120.0.0.0 Safari/537.36" etag="Hm_DPECCnGsYoNwReu5X" version="22.1.16" type="google">
  <diagram name="Page-1" id="ygKbUG0p-Wg5Wk1x4qDb">
    <mxGraphModel grid="1" page="1" gridSize="10" guides="1" tooltips="1" connect="1" arrows="1" fold="1" pageScale="1" pageWidth="850" pageHeight="1100" math="0" shadow="0">
      <root>
        <mxCell id="0" />
        <mxCell id="1" parent="0" />
        <mxCell id="JhVfZ2SFHZQroO5xEiYe-6" style="edgeStyle=orthogonalEdgeStyle;rounded=0;orthogonalLoop=1;jettySize=auto;html=1;entryX=0.5;entryY=0;entryDx=0;entryDy=0;" edge="1" parent="1" source="JhVfZ2SFHZQroO5xEiYe-1" target="JhVfZ2SFHZQroO5xEiYe-2">
          <mxGeometry relative="1" as="geometry" />
        </mxCell>
        <mxCell id="JhVfZ2SFHZQroO5xEiYe-1" value="Login" style="rounded=0;whiteSpace=wrap;html=1;" vertex="1" parent="1">
          <mxGeometry x="160" y="140" width="120" height="60" as="geometry" />
        </mxCell>
        <mxCell id="JhVfZ2SFHZQroO5xEiYe-2" value="Logout" style="rounded=0;whiteSpace=wrap;html=1;" vertex="1" parent="1">
          <mxGeometry x="160" y="560" width="120" height="60" as="geometry" />
        </mxCell>
        <mxCell id="JhVfZ2SFHZQroO5xEiYe-25" style="edgeStyle=orthogonalEdgeStyle;rounded=0;orthogonalLoop=1;jettySize=auto;html=1;entryX=0;entryY=0.5;entryDx=0;entryDy=0;" edge="1" parent="1" source="JhVfZ2SFHZQroO5xEiYe-3" target="JhVfZ2SFHZQroO5xEiYe-10">
          <mxGeometry relative="1" as="geometry" />
        </mxCell>
        <mxCell id="JhVfZ2SFHZQroO5xEiYe-3" value="Admin" style="rounded=0;whiteSpace=wrap;html=1;" vertex="1" parent="1">
          <mxGeometry x="300" y="235" width="110" height="50" as="geometry" />
        </mxCell>
        <mxCell id="JhVfZ2SFHZQroO5xEiYe-26" style="edgeStyle=orthogonalEdgeStyle;rounded=0;orthogonalLoop=1;jettySize=auto;html=1;entryX=0;entryY=0.5;entryDx=0;entryDy=0;" edge="1" parent="1" source="JhVfZ2SFHZQroO5xEiYe-4" target="JhVfZ2SFHZQroO5xEiYe-11">
          <mxGeometry relative="1" as="geometry" />
        </mxCell>
        <mxCell id="JhVfZ2SFHZQroO5xEiYe-4" value="Student" style="rounded=0;whiteSpace=wrap;html=1;" vertex="1" parent="1">
          <mxGeometry x="300" y="355" width="110" height="50" as="geometry" />
        </mxCell>
        <mxCell id="JhVfZ2SFHZQroO5xEiYe-27" style="edgeStyle=orthogonalEdgeStyle;rounded=0;orthogonalLoop=1;jettySize=auto;html=1;entryX=0;entryY=0.5;entryDx=0;entryDy=0;" edge="1" parent="1" source="JhVfZ2SFHZQroO5xEiYe-5" target="JhVfZ2SFHZQroO5xEiYe-17">
          <mxGeometry relative="1" as="geometry" />
        </mxCell>
        <mxCell id="JhVfZ2SFHZQroO5xEiYe-5" value="Organisation/Club/&lt;br&gt;Society" style="rounded=0;whiteSpace=wrap;html=1;" vertex="1" parent="1">
          <mxGeometry x="300" y="470" width="110" height="50" as="geometry" />
        </mxCell>
        <mxCell id="JhVfZ2SFHZQroO5xEiYe-31" style="edgeStyle=orthogonalEdgeStyle;rounded=0;orthogonalLoop=1;jettySize=auto;html=1;" edge="1" parent="1" source="JhVfZ2SFHZQroO5xEiYe-10" target="JhVfZ2SFHZQroO5xEiYe-21">
          <mxGeometry relative="1" as="geometry" />
        </mxCell>
        <mxCell id="JhVfZ2SFHZQroO5xEiYe-34" style="edgeStyle=orthogonalEdgeStyle;rounded=0;orthogonalLoop=1;jettySize=auto;html=1;" edge="1" parent="1" source="rpaWVw11j2FrbPDWX4dr-1">
          <mxGeometry relative="1" as="geometry">
            <mxPoint x="990" y="260" as="targetPoint" />
          </mxGeometry>
        </mxCell>
        <mxCell id="JhVfZ2SFHZQroO5xEiYe-10" value="Insert, delete, update, and manage all data" style="rounded=0;whiteSpace=wrap;html=1;" vertex="1" parent="1">
          <mxGeometry x="460" y="220" width="160" height="80" as="geometry" />
        </mxCell>
        <mxCell id="JhVfZ2SFHZQroO5xEiYe-16" value="" style="group" connectable="0" vertex="1" parent="1">
          <mxGeometry x="460" y="330" width="460" height="100" as="geometry" />
        </mxCell>
        <mxCell id="JhVfZ2SFHZQroO5xEiYe-11" value="" style="rounded=0;whiteSpace=wrap;html=1;" vertex="1" parent="JhVfZ2SFHZQroO5xEiYe-16">
          <mxGeometry width="460" height="100" as="geometry" />
        </mxCell>
        <mxCell id="JhVfZ2SFHZQroO5xEiYe-12" value="Vehicle Pooling&lt;br&gt;(Add, update, delete, search, book rides)" style="rounded=0;whiteSpace=wrap;html=1;" vertex="1" parent="JhVfZ2SFHZQroO5xEiYe-16">
          <mxGeometry x="10" y="10" width="140" height="80" as="geometry" />
        </mxCell>
        <mxCell id="JhVfZ2SFHZQroO5xEiYe-13" value="Food Recommendation&lt;br&gt;((Add, update, modify, delete, search recommendations)" style="rounded=0;whiteSpace=wrap;html=1;" vertex="1" parent="JhVfZ2SFHZQroO5xEiYe-16">
          <mxGeometry x="160" y="10" width="140" height="80" as="geometry" />
        </mxCell>
        <mxCell id="JhVfZ2SFHZQroO5xEiYe-35" style="edgeStyle=orthogonalEdgeStyle;rounded=0;orthogonalLoop=1;jettySize=auto;html=1;" edge="1" parent="JhVfZ2SFHZQroO5xEiYe-16">
          <mxGeometry relative="1" as="geometry">
            <mxPoint x="530" y="50" as="targetPoint" />
            <mxPoint x="460" y="50" as="sourcePoint" />
          </mxGeometry>
        </mxCell>
        <mxCell id="JhVfZ2SFHZQroO5xEiYe-15" value="Event Hub&lt;br&gt;(View Events)" style="rounded=0;whiteSpace=wrap;html=1;" vertex="1" parent="JhVfZ2SFHZQroO5xEiYe-16">
          <mxGeometry x="310" y="10" width="140" height="80" as="geometry" />
        </mxCell>
        <mxCell id="JhVfZ2SFHZQroO5xEiYe-36" style="edgeStyle=orthogonalEdgeStyle;rounded=0;orthogonalLoop=1;jettySize=auto;html=1;" edge="1" parent="1" source="JhVfZ2SFHZQroO5xEiYe-17">
          <mxGeometry relative="1" as="geometry">
            <mxPoint x="990" y="495" as="targetPoint" />
          </mxGeometry>
        </mxCell>
        <mxCell id="JhVfZ2SFHZQroO5xEiYe-17" value="Event Hub&lt;br&gt;(Add, update, modify, view events)" style="rounded=0;whiteSpace=wrap;html=1;" vertex="1" parent="1">
          <mxGeometry x="460" y="455" width="140" height="80" as="geometry" />
        </mxCell>
        <mxCell id="JhVfZ2SFHZQroO5xEiYe-18" value="" style="endArrow=classic;html=1;rounded=0;" edge="1" parent="1">
          <mxGeometry width="50" height="50" relative="1" as="geometry">
            <mxPoint x="220" y="259.55" as="sourcePoint" />
            <mxPoint x="300" y="259.55" as="targetPoint" />
          </mxGeometry>
        </mxCell>
        <mxCell id="JhVfZ2SFHZQroO5xEiYe-19" value="" style="endArrow=classic;html=1;rounded=0;" edge="1" parent="1">
          <mxGeometry width="50" height="50" relative="1" as="geometry">
            <mxPoint x="220" y="380" as="sourcePoint" />
            <mxPoint x="300" y="380" as="targetPoint" />
          </mxGeometry>
        </mxCell>
        <mxCell id="JhVfZ2SFHZQroO5xEiYe-20" value="" style="endArrow=classic;html=1;rounded=0;" edge="1" parent="1">
          <mxGeometry width="50" height="50" relative="1" as="geometry">
            <mxPoint x="220" y="500" as="sourcePoint" />
            <mxPoint x="300" y="500" as="targetPoint" />
          </mxGeometry>
        </mxCell>
        <mxCell id="JhVfZ2SFHZQroO5xEiYe-21" value="&lt;br&gt;Database" style="strokeWidth=2;html=1;shape=mxgraph.flowchart.database;whiteSpace=wrap;" vertex="1" parent="1">
          <mxGeometry x="960" y="535" width="60" height="80" as="geometry" />
        </mxCell>
        <mxCell id="JhVfZ2SFHZQroO5xEiYe-30" value="" style="rounded=0;whiteSpace=wrap;html=1;strokeWidth=4;fillColor=none;" vertex="1" parent="1">
          <mxGeometry x="120" y="90" width="940" height="540" as="geometry" />
        </mxCell>
        <mxCell id="JhVfZ2SFHZQroO5xEiYe-32" style="edgeStyle=orthogonalEdgeStyle;rounded=0;orthogonalLoop=1;jettySize=auto;html=1;entryX=0.5;entryY=0;entryDx=0;entryDy=0;entryPerimeter=0;" edge="1" parent="1" source="JhVfZ2SFHZQroO5xEiYe-17" target="JhVfZ2SFHZQroO5xEiYe-21">
          <mxGeometry relative="1" as="geometry" />
        </mxCell>
        <mxCell id="JhVfZ2SFHZQroO5xEiYe-33" style="edgeStyle=orthogonalEdgeStyle;rounded=0;orthogonalLoop=1;jettySize=auto;html=1;entryX=0.5;entryY=0;entryDx=0;entryDy=0;entryPerimeter=0;" edge="1" parent="1" target="JhVfZ2SFHZQroO5xEiYe-21">
          <mxGeometry relative="1" as="geometry">
            <mxPoint x="920" y="380" as="sourcePoint" />
          </mxGeometry>
        </mxCell>
        <mxCell id="rpaWVw11j2FrbPDWX4dr-2" value="" style="edgeStyle=orthogonalEdgeStyle;rounded=0;orthogonalLoop=1;jettySize=auto;html=1;" edge="1" parent="1" source="JhVfZ2SFHZQroO5xEiYe-10" target="rpaWVw11j2FrbPDWX4dr-1">
          <mxGeometry relative="1" as="geometry">
            <mxPoint x="990" y="260" as="targetPoint" />
            <mxPoint x="620" y="260" as="sourcePoint" />
          </mxGeometry>
        </mxCell>
        <mxCell id="rpaWVw11j2FrbPDWX4dr-1" value="User(Organisaiton) approval/ authentication" style="rounded=0;whiteSpace=wrap;html=1;" vertex="1" parent="1">
          <mxGeometry x="660" y="220" width="160" height="80" as="geometry" />
        </mxCell>
      </root>
    </mxGraphModel>
  </diagram>
</mxfile>
